<svg width="24" height="24" viewBox="0 0 24 24" fill="none" xmlns="http://www.w3.org/2000/svg">
<g clip-path="url(#clip0_11_1346)">
<path d="M8.7 15.9L4.8 12L8.7 8.09997C9.09 7.70997 9.09 7.08997 8.7 6.69997C8.31 6.30997 7.69 6.30997 7.3 6.69997L2.71 11.29C2.32 11.68 2.32 12.31 2.71 12.7L7.3 17.3C7.69 17.69 8.31 17.69 8.7 17.3C9.09 16.91 9.09 16.29 8.7 15.9ZM15.3 15.9L19.2 12L15.3 8.09997C14.91 7.70997 14.91 7.08997 15.3 6.69997C15.69 6.30997 16.31 6.30997 16.7 6.69997L21.29 11.29C21.68 11.68 21.68 12.31 21.29 12.7L16.7 17.3C16.31 17.69 15.69 17.69 15.3 17.3C14.91 16.91 14.91 16.29 15.3 15.9Z" fill="var(--main)"/>
</g>
<defs>
<clipPath id="clip0_11_1346">
<rect width="24" height="24" fill="white"/>
</clipPath>
</defs>
</svg>
