<svg width="512" height="512" viewBox="0 0 512 512" fill="none" xmlns="http://www.w3.org/2000/svg">
<path d="M146 116H366C382.569 116 396 129.431 396 146V366C396 382.569 382.569 396 366 396H146C129.431 396 116 382.569 116 366V146C116 129.431 129.431 116 146 116Z" stroke="black" stroke-width="20"/>
<path d="M331.283 178.374C330.069 177.417 328.692 176.728 327.23 176.347C325.768 175.965 324.251 175.898 322.765 176.149C321.279 176.401 319.854 176.966 318.572 177.812C317.289 178.659 316.174 179.769 315.291 181.081L231.79 304.868L195.58 265.739C194.515 264.592 193.25 263.681 191.859 263.061C190.467 262.44 188.976 262.12 187.47 262.12C185.963 262.12 184.472 262.44 183.08 263.061C181.689 263.681 180.424 264.592 179.359 265.739C178.294 266.886 177.449 268.248 176.873 269.747C176.297 271.246 176 272.853 176 274.475C176 276.098 176.297 277.704 176.873 279.203C177.449 280.702 178.294 282.064 179.359 283.212L225.051 332.431C226.118 333.572 227.384 334.474 228.776 335.086C230.167 335.699 231.658 336.009 233.161 336H234.075C235.721 335.858 237.318 335.334 238.758 334.463C240.197 333.592 241.445 332.395 242.413 330.955L333.796 195.601C334.684 194.293 335.324 192.81 335.678 191.235C336.033 189.66 336.095 188.026 335.862 186.425C335.628 184.825 335.103 183.289 334.318 181.908C333.532 180.526 332.501 179.325 331.283 178.374Z" fill="black"/>
</svg>
