<svg width="24" height="24" viewBox="0 0 24 24" fill="none" xmlns="http://www.w3.org/2000/svg">
<path d="M4 1H20C21.6569 1 23 2.34315 23 4V20C23 21.6569 21.6569 23 20 23H4C2.34315 23 1 21.6569 1 20V4C1 2.34315 2.34315 1 4 1Z" stroke="var(--main)" stroke-width="2"/>
<path d="M18.0225 5.78993C17.9254 5.71339 17.8152 5.65827 17.6983 5.62773C17.5813 5.59718 17.4599 5.59182 17.3411 5.61194C17.2222 5.63206 17.1082 5.67727 17.0056 5.74498C16.903 5.81269 16.8138 5.90156 16.7431 6.0065L10.0631 15.9095L7.16624 12.7791C7.08103 12.6873 6.97988 12.6145 6.86856 12.5648C6.75723 12.5152 6.63792 12.4896 6.51742 12.4896C6.39692 12.4896 6.27761 12.5152 6.16628 12.5648C6.05496 12.6145 5.95381 12.6873 5.8686 12.7791C5.7834 12.8709 5.71581 12.9799 5.6697 13.0998C5.62359 13.2197 5.59985 13.3482 5.59985 13.478C5.59985 13.6078 5.62359 13.7364 5.6697 13.8563C5.71581 13.9762 5.7834 14.0852 5.8686 14.1769L9.52391 18.1145C9.6093 18.2058 9.71057 18.2779 9.8219 18.3269C9.93324 18.3759 10.0525 18.4007 10.1727 18.4H10.2458C10.3775 18.3886 10.5053 18.3467 10.6205 18.277C10.7356 18.2073 10.8354 18.1116 10.9129 17.9964L18.2235 7.16808C18.2946 7.06347 18.3458 6.94477 18.3741 6.8188C18.4025 6.69283 18.4075 6.56207 18.3888 6.43402C18.3701 6.30597 18.3281 6.18315 18.2653 6.07262C18.2024 5.96209 18.1199 5.86602 18.0225 5.78993Z" fill="var(--main)"/>
</svg>
